<svg id="Layer_1" data-name="Layer 1" xmlns="http://www.w3.org/2000/svg" viewBox="0 0 476 325"><defs><style>.cls-1{fill:#171717;}</style></defs><title>blobifyMenu</title><path class="cls-1" d="M476,325H0V238.48c2.61-5,7-11.88,14-16.54,13.17-8.81,19.44,1,36-6.37,11.86-5.29,16.21-13.71,27.62-12.68.69.06,3.57,1,9.38,2.5,8.28,2.2,21.57,5.61,26.17,1.74a31.79,31.79,0,0,1,3.46-2.61,25.25,25.25,0,0,1,3.9-2.08,29.48,29.48,0,0,1,9.82-2.29c10.5-.7,23.16,2.57,30.76,4.12,13,2.67,20.12,4.13,29.29,2.78,14.82-2.18,19.51-9.41,30.76-6.9a11.4,11.4,0,0,1,1.34.37,16.64,16.64,0,0,1,2.72,1.27s1.18.72,9.12,4c6.07,2.53,20.31-2.82,33.68-5.3,10-1.85,25.73-4.76,38,.38,1.39.58,7.22,3,15.05,5.39a67,67,0,0,0,9.95,2.18,71.72,71.72,0,0,0,8.38.68c8.42.42,13.95,4.54,18.62,6.43,18.33,7.43,30.67-16.58,46.23-7.11,5.54,3.36,4,6.39,9.77,9.66,12,6.75,21.2-4.74,35-3.82,6.5.43,15.89,3.74,27,17.81Z"/></svg>