<svg id="Layer_1" data-name="Layer 1" xmlns="http://www.w3.org/2000/svg" viewBox="0 0 150 150"><defs><style>.cls-1{fill:none;stroke:#fbb03b;stroke-miterlimit:10;stroke-width:5px;}</style></defs><title>mute</title><circle class="cls-1" cx="74.79" cy="74.79" r="73.21"/><g id="cBAgWT"><path class="cls-1" d="M75.17,75.39q0,16.19,0,32.35a5.18,5.18,0,0,1-7.78,4.63,10.1,10.1,0,0,1-1.23-.92q-12.54-10.4-25.07-20.8a2.09,2.09,0,0,0-1.46-.52q-6.32,0-12.63,0c-3.47,0-5.6-2.15-5.6-5.64q0-9.19,0-18.4a5.19,5.19,0,0,1,5.53-5.55q6.36,0,12.71,0A2.11,2.11,0,0,0,41.1,60L66.46,39a5.08,5.08,0,0,1,5.81-.81A5,5,0,0,1,75.17,43V75.39Z"/></g></svg>