<svg id="Layer_1" data-name="Layer 1" xmlns="http://www.w3.org/2000/svg" viewBox="0 0 476 325"><defs><style>.cls-1{fill:#171717;}</style></defs><title>sidebar</title><path class="cls-1" d="M476,0V325H381.75a67.07,67.07,0,0,1-3.55-27c.92-11.22,5.1-24.45,5.59-26,3-9.45,7.33-19.39,3.2-24.27a20.11,20.11,0,0,1-3.54-5,18.49,18.49,0,0,1-1.72-6.71c-.54-7.17,1.93-15.81,3.11-21,2-8.88,3.11-13.74,2.1-20-1.65-10.12-7.11-13.32-5.21-21,.48-2,.65-1,4.16-9,3.89-8.91,4.18-11.28,4.19-13,0-3.82-1.39-5.91-3.14-10a84.54,84.54,0,0,1-5.21-20c-1.18-8.73-2.65-19.64,3.52-27,1.5-1.79,3-2.83,3.94-5.44,1.93-5.33-1-10.14-2.25-13.56-4-11.11,7.19-15.31,8.38-32,1-14.43-6.81-19-3.22-33.5A40.47,40.47,0,0,1,396.37,0Z"/></svg>