<svg width="869" height="127" viewBox="0 0 869 127" fill="none" xmlns="http://www.w3.org/2000/svg">
<rect x="91.9717" y="87.0039" width="61.8307" height="38.9218" fill="#E7FF8C"/>
<rect x="156.894" y="87.0039" width="61.8307" height="38.9218" fill="#00AA00"/>
<rect x="156.894" y="87.0039" width="61.8307" height="38.9218" fill="white" fill-opacity="0.5"/>
<rect x="221.816" y="87.0039" width="61.8307" height="38.9218" fill="#84FFFF"/>
<rect x="286.738" y="87.0039" width="61.8307" height="38.9218" fill="#5C70F1"/>
<rect x="351.66" y="87.0039" width="61.8307" height="38.9218" fill="#BB98DF"/>
<rect x="546.817" y="87.0781" width="61.8307" height="38.9218" fill="#A14842"/>
<rect x="742.084" y="87.5781" width="60.8307" height="37.9218" fill="#F7C3A8" stroke="black"/>
<rect x="806.506" y="87.0781" width="61.8307" height="38.9218" fill="#FEF975"/>
<path d="M20.79 112.598L16.4307 101.207H16.3603C16.4424 102.109 16.4834 103.182 16.4834 104.424V112.598H15.1035V99.748H17.3535L21.4228 110.348H21.4932L25.5976 99.748H27.8301V112.598H26.3359V104.318C26.3359 103.369 26.3769 102.338 26.459 101.225H26.3887L21.9941 112.598H20.79ZM34.4025 112.598H32.9435V102.965H34.4025V112.598ZM32.8205 100.354C32.8205 100.021 32.9025 99.7773 33.0666 99.625C33.2307 99.4668 33.4357 99.3877 33.6818 99.3877C33.9162 99.3877 34.1183 99.4668 34.2883 99.625C34.4582 99.7832 34.5432 100.026 34.5432 100.354C34.5432 100.683 34.4582 100.929 34.2883 101.093C34.1183 101.251 33.9162 101.33 33.6818 101.33C33.4357 101.33 33.2307 101.251 33.0666 101.093C32.9025 100.929 32.8205 100.683 32.8205 100.354ZM45.8881 112.598V106.366C45.8881 105.581 45.7094 104.995 45.3519 104.608C44.9945 104.222 44.435 104.028 43.6732 104.028C42.6654 104.028 41.9271 104.301 41.4584 104.846C40.9896 105.391 40.7553 106.29 40.7553 107.544V112.598H39.2963V102.965H40.4828L40.7201 104.283H40.7904C41.0892 103.809 41.5082 103.442 42.0473 103.185C42.5863 102.921 43.1869 102.789 43.849 102.789C45.0092 102.789 45.8822 103.07 46.4682 103.633C47.0541 104.189 47.3471 105.083 47.3471 106.313V112.598H45.8881ZM60.4674 107.772C60.4674 109.343 60.0719 110.57 59.2809 111.455C58.4898 112.334 57.3971 112.773 56.0025 112.773C55.1412 112.773 54.3766 112.571 53.7086 112.167C53.0406 111.763 52.525 111.183 52.1617 110.427C51.7984 109.671 51.6168 108.786 51.6168 107.772C51.6168 106.202 52.0094 104.98 52.7945 104.107C53.5797 103.229 54.6695 102.789 56.0641 102.789C57.4117 102.789 58.481 103.237 59.2721 104.134C60.0689 105.03 60.4674 106.243 60.4674 107.772ZM53.1285 107.772C53.1285 109.003 53.3746 109.94 53.8668 110.585C54.359 111.229 55.0826 111.552 56.0377 111.552C56.9928 111.552 57.7164 111.232 58.2086 110.594C58.7066 109.949 58.9557 109.009 58.9557 107.772C58.9557 106.548 58.7066 105.619 58.2086 104.986C57.7164 104.348 56.9869 104.028 56.0201 104.028C55.065 104.028 54.3443 104.342 53.858 104.969C53.3717 105.596 53.1285 106.53 53.1285 107.772ZM69.2283 102.789C69.656 102.789 70.0398 102.824 70.3797 102.895L70.1775 104.248C69.7791 104.16 69.4275 104.116 69.1228 104.116C68.3435 104.116 67.6756 104.433 67.1189 105.065C66.5682 105.698 66.2928 106.486 66.2928 107.43V112.598H64.8338V102.965H66.0379L66.2049 104.749H66.2752C66.6326 104.122 67.0633 103.639 67.5672 103.299C68.0711 102.959 68.6248 102.789 69.2283 102.789Z" fill="white"/>
<path d="M92.2722 45.5078H154.103V84.4296H92.2722V45.5078Z" fill="#B2FF59"/>
<rect x="156.957" y="45.3945" width="61.8307" height="38.9218" fill="#69F0AE"/>
<rect x="222.117" y="45.5078" width="61.8307" height="38.9218" fill="#18FFFF"/>
<rect x="287.039" y="45.5078" width="61.8307" height="38.9218" fill="#448AFF"/>
<rect x="351.961" y="45.5078" width="61.8307" height="38.9218" fill="#7C4DFF"/>
<rect x="416.883" y="45.5078" width="61.8307" height="38.9218" fill="#E040FB"/>
<rect x="481.806" y="45.5078" width="61.8307" height="38.9218" fill="#FF4081"/>
<path d="M92 87H153.831V125.922H92V87Z" fill="#CCFF90"/>
<rect x="157" y="87" width="61.8307" height="38.9218" fill="#B9F6CA"/>
<rect x="287" y="87" width="61.8307" height="38.9218" fill="#82B1FF"/>
<rect x="353" y="87" width="61.8307" height="38.9218" fill="#B388FF"/>
<rect x="547.118" y="45.5703" width="61.8307" height="38.9218" fill="#C50E29"/>
<path d="M547 87H608.831V125.922H547V87Z" fill="#C85A54"/>
<rect x="612.04" y="45.5703" width="61.8307" height="38.9218" fill="#FF5252"/>
<rect x="676.962" y="45.5703" width="61.8307" height="38.9218" fill="#FF6E40"/>
<rect x="741.884" y="45.5703" width="61.8307" height="38.9218" fill="#FFAB40"/>
<path d="M742 87H803.831V125.922H742V87Z" fill="#FFD180"/>
<rect x="806.806" y="45.5703" width="61.8307" height="38.9218" fill="#FFFF00"/>
<rect x="807" y="87" width="61.8307" height="38.9218" fill="#FFFF8D"/>
<path d="M21.3086 71.957L16.9492 60.5664H16.8789C16.9609 61.4688 17.0019 62.541 17.0019 63.7832V71.957H15.6221V59.1074H17.8721L21.9414 69.707H22.0117L26.1162 59.1074H28.3486V71.957H26.8545V63.6777C26.8545 62.7285 26.8955 61.6973 26.9775 60.584H26.9072L22.5127 71.957H21.3086ZM39.3859 71.957L39.0959 70.5859H39.0256C38.5451 71.1895 38.0646 71.5996 37.5842 71.8164C37.1096 72.0273 36.5148 72.1328 35.8 72.1328C34.8449 72.1328 34.0949 71.8867 33.55 71.3945C33.0109 70.9023 32.7414 70.2021 32.7414 69.2939C32.7414 67.3486 34.2971 66.3291 37.4084 66.2354L39.0432 66.1826V65.585C39.0432 64.8291 38.8791 64.2725 38.551 63.915C38.2287 63.5518 37.7101 63.3701 36.9953 63.3701C36.1926 63.3701 35.2844 63.6162 34.2707 64.1084L33.8225 62.9922C34.2971 62.7344 34.8156 62.5322 35.3781 62.3857C35.9465 62.2393 36.5148 62.166 37.0832 62.166C38.2316 62.166 39.0812 62.4209 39.632 62.9307C40.1887 63.4404 40.467 64.2578 40.467 65.3828V71.957H39.3859ZM36.09 70.9287C36.9982 70.9287 37.7101 70.6797 38.2258 70.1816C38.7473 69.6836 39.008 68.9863 39.008 68.0898V67.2197L37.549 67.2812C36.3889 67.3223 35.551 67.5039 35.0353 67.8262C34.5256 68.1426 34.2707 68.6377 34.2707 69.3115C34.2707 69.8389 34.4289 70.2402 34.7453 70.5156C35.0676 70.791 35.5158 70.9287 36.09 70.9287ZM44.1127 76.2812C43.556 76.2812 43.1049 76.208 42.7592 76.0615V74.875C43.1635 74.9922 43.5619 75.0508 43.9545 75.0508C44.4115 75.0508 44.7455 74.9248 44.9564 74.6729C45.1732 74.4268 45.2816 74.0488 45.2816 73.5391V62.3242H46.7406V73.4336C46.7406 75.332 45.8646 76.2812 44.1127 76.2812ZM45.1586 59.7139C45.1586 59.3799 45.2406 59.1367 45.4047 58.9844C45.5687 58.8262 45.7738 58.7471 46.0199 58.7471C46.2543 58.7471 46.4564 58.8262 46.6264 58.9844C46.7963 59.1426 46.8812 59.3857 46.8812 59.7139C46.8812 60.042 46.7963 60.2881 46.6264 60.4521C46.4564 60.6104 46.2543 60.6895 46.0199 60.6895C45.7738 60.6895 45.5687 60.6104 45.4047 60.4521C45.2406 60.2881 45.1586 60.042 45.1586 59.7139ZM59.9488 67.1318C59.9488 68.7021 59.5533 69.9297 58.7623 70.8145C57.9713 71.6934 56.8785 72.1328 55.484 72.1328C54.6227 72.1328 53.858 71.9307 53.19 71.5264C52.5221 71.1221 52.0064 70.542 51.6432 69.7861C51.2799 69.0303 51.0982 68.1455 51.0982 67.1318C51.0982 65.5615 51.4908 64.3398 52.276 63.4668C53.0611 62.5879 54.151 62.1484 55.5455 62.1484C56.8932 62.1484 57.9625 62.5967 58.7535 63.4932C59.5504 64.3896 59.9488 65.6025 59.9488 67.1318ZM52.61 67.1318C52.61 68.3623 52.856 69.2998 53.3482 69.9443C53.8404 70.5889 54.5641 70.9111 55.5191 70.9111C56.4742 70.9111 57.1978 70.5918 57.69 69.9531C58.1881 69.3086 58.4371 68.3682 58.4371 67.1318C58.4371 65.9072 58.1881 64.9785 57.69 64.3457C57.1978 63.707 56.4684 63.3877 55.5016 63.3877C54.5465 63.3877 53.8258 63.7012 53.3394 64.3281C52.8531 64.9551 52.61 65.8896 52.61 67.1318ZM68.7098 62.1484C69.1375 62.1484 69.5213 62.1836 69.8611 62.2539L69.659 63.6074C69.2605 63.5195 68.909 63.4756 68.6043 63.4756C67.825 63.4756 67.157 63.792 66.6004 64.4248C66.0496 65.0576 65.7742 65.8457 65.7742 66.7891V71.957H64.3152V62.3242H65.5193L65.6863 64.1084H65.7566C66.1141 63.4814 66.5447 62.998 67.0486 62.6582C67.5525 62.3184 68.1062 62.1484 68.7098 62.1484Z" fill="white"/>
<path d="M578.968 26.2305H584.793V34.5625C583.886 34.8516 582.965 35.0703 582.027 35.2188C581.09 35.3672 580.004 35.4414 578.769 35.4414C576.176 35.4414 574.156 34.6719 572.711 33.1328C571.265 31.5859 570.543 29.4219 570.543 26.6406C570.543 24.8594 570.898 23.3008 571.609 21.9648C572.328 20.6211 573.359 19.5977 574.703 18.8945C576.047 18.1836 577.621 17.8281 579.426 17.8281C581.254 17.8281 582.957 18.1641 584.535 18.8359L583.761 20.5938C582.215 19.9375 580.726 19.6094 579.297 19.6094C577.211 19.6094 575.582 20.2305 574.41 21.4727C573.238 22.7148 572.652 24.4375 572.652 26.6406C572.652 28.9531 573.215 30.707 574.34 31.9023C575.472 33.0977 577.133 33.6953 579.32 33.6953C580.508 33.6953 581.668 33.5586 582.801 33.2852V28.0117H578.968V26.2305Z" fill="white"/>
<path d="M126.901 20.1367C125.018 20.1367 123.53 20.7656 122.436 22.0234C121.35 23.2734 120.807 24.9883 120.807 27.168C120.807 29.4102 121.33 31.1445 122.377 32.3711C123.432 33.5898 124.932 34.1992 126.877 34.1992C128.073 34.1992 129.436 33.9844 130.967 33.5547V35.3008C129.78 35.7461 128.315 35.9688 126.573 35.9688C124.049 35.9688 122.1 35.2031 120.725 33.6719C119.358 32.1406 118.674 29.9648 118.674 27.1445C118.674 25.3789 119.002 23.832 119.659 22.5039C120.323 21.1758 121.276 20.1523 122.518 19.4336C123.768 18.7148 125.237 18.3555 126.924 18.3555C128.721 18.3555 130.291 18.6836 131.635 19.3398L130.791 21.0508C129.494 20.4414 128.198 20.1367 126.901 20.1367Z" fill="white"/>
<path d="M181.062 20.3516C179.179 20.3516 177.691 20.9805 176.597 22.2383C175.511 23.4883 174.968 25.2031 174.968 27.3828C174.968 29.625 175.492 31.3594 176.539 32.5859C177.593 33.8047 179.093 34.4141 181.039 34.4141C182.234 34.4141 183.597 34.1992 185.128 33.7695V35.5156C183.941 35.9609 182.476 36.1836 180.734 36.1836C178.21 36.1836 176.261 35.418 174.886 33.8867C173.519 32.3555 172.835 30.1797 172.835 27.3594C172.835 25.5938 173.164 24.0469 173.82 22.7188C174.484 21.3906 175.437 20.3672 176.679 19.6484C177.929 18.9297 179.398 18.5703 181.085 18.5703C182.882 18.5703 184.453 18.8984 185.796 19.5547L184.953 21.2656C183.656 20.6562 182.359 20.3516 181.062 20.3516ZM200.407 25.4141L199.634 29.3984H202.95V30.9102H199.353L198.368 35.9492H196.763L197.747 30.9102H194.196L193.235 35.9492H191.642L192.579 30.9102H189.509V29.3984H192.872L193.669 25.4141H190.423V23.9258H193.927L194.888 18.8164H196.517L195.556 23.9258H199.13L200.114 18.8164H201.685L200.7 23.9258H203.794V25.4141H200.407ZM194.478 29.3984H198.028L198.802 25.4141H195.251L194.478 29.3984Z" fill="white"/>
<path d="M260.018 27.0039C260.018 29.832 259.249 31.9961 257.71 33.4961C256.178 34.9883 253.971 35.7344 251.088 35.7344H246.342V18.6016H251.592C254.256 18.6016 256.327 19.3398 257.803 20.8164C259.28 22.293 260.018 24.3555 260.018 27.0039ZM257.909 27.0742C257.909 24.8398 257.346 23.1562 256.221 22.0234C255.104 20.8906 253.44 20.3242 251.229 20.3242H248.335V34.0117H250.76C253.135 34.0117 254.92 33.4297 256.116 32.2656C257.311 31.0938 257.909 29.3633 257.909 27.0742Z" fill="white"/>
<path d="M316.015 27.2695C316.015 30.0977 315.245 32.2617 313.706 33.7617C312.175 35.2539 309.968 36 307.085 36H302.339V18.8672H307.589C310.253 18.8672 312.323 19.6055 313.8 21.082C315.276 22.5586 316.015 24.6211 316.015 27.2695ZM313.905 27.3398C313.905 25.1055 313.343 23.4219 312.218 22.2891C311.101 21.1562 309.437 20.5898 307.226 20.5898H304.331V34.2773H306.757C309.132 34.2773 310.917 33.6953 312.112 32.5312C313.308 31.3594 313.905 29.6289 313.905 27.3398ZM331.387 25.4648L330.614 29.4492H333.93V30.9609H330.333L329.348 36H327.743L328.727 30.9609H325.176L324.215 36H322.622L323.559 30.9609H320.489V29.4492H323.852L324.649 25.4648H321.403V23.9766H324.907L325.868 18.8672H327.497L326.536 23.9766H330.11L331.094 18.8672H332.665L331.68 23.9766H334.774V25.4648H331.387ZM325.458 29.4492H329.008L329.782 25.4648H326.231L325.458 29.4492Z" fill="white"/>
<path d="M388.285 35.8281H378.734V18.6953H388.285V20.4648H380.726V25.9844H387.828V27.7422H380.726V34.0469H388.285V35.8281Z" fill="white"/>
<path d="M445.937 35.207H443.945V18.0742H453.495V19.8438H445.937V26.1133H453.038V27.8828H445.937V35.207Z" fill="white"/>
<path d="M501.879 36H499.887V18.8672H509.437V20.6367H501.879V26.9062H508.98V28.6758H501.879V36ZM523.826 25.4648L523.052 29.4492H526.369V30.9609H522.771L521.787 36H520.181L521.166 30.9609H517.615L516.654 36H515.06L515.998 30.9609H512.927V29.4492H516.291L517.087 25.4648H513.841V23.9766H517.345L518.306 18.8672H519.935L518.974 23.9766H522.548L523.533 18.8672H525.103L524.119 23.9766H527.212V25.4648H523.826ZM517.896 29.4492H521.447L522.22 25.4648H518.669L517.896 29.4492Z" fill="white"/>
<path d="M634.911 27.0234H640.735V35.3555C639.829 35.6445 638.907 35.8633 637.969 36.0117C637.032 36.1602 635.946 36.2344 634.711 36.2344C632.118 36.2344 630.098 35.4648 628.653 33.9258C627.207 32.3789 626.485 30.2148 626.485 27.4336C626.485 25.6523 626.84 24.0938 627.551 22.7578C628.27 21.4141 629.301 20.3906 630.645 19.6875C631.989 18.9766 633.563 18.6211 635.368 18.6211C637.196 18.6211 638.899 18.957 640.477 19.6289L639.704 21.3867C638.157 20.7305 636.668 20.4023 635.239 20.4023C633.153 20.4023 631.524 21.0234 630.352 22.2656C629.18 23.5078 628.594 25.2305 628.594 27.4336C628.594 29.7461 629.157 31.5 630.282 32.6953C631.415 33.8906 633.075 34.4883 635.262 34.4883C636.45 34.4883 637.61 34.3516 638.743 34.0781V28.8047H634.911V27.0234ZM656.4 25.4648L655.627 29.4492H658.943V30.9609H655.346L654.361 36H652.756L653.74 30.9609H650.19L649.229 36H647.635L648.572 30.9609H645.502V29.4492H648.865L649.662 25.4648H646.416V23.9766H649.92L650.881 18.8672H652.51L651.549 23.9766H655.123L656.107 18.8672H657.678L656.693 23.9766H659.787V25.4648H656.4ZM650.471 29.4492H654.022L654.795 25.4648H651.244L650.471 29.4492Z" fill="white"/>
<path d="M713.383 35.207L711.25 29.7578H704.383L702.274 35.207H700.258L707.031 18.0039H708.707L715.445 35.207H713.383ZM710.629 27.9648L708.637 22.6562C708.379 21.9844 708.113 21.1602 707.84 20.1836C707.668 20.9336 707.422 21.7578 707.102 22.6562L705.086 27.9648H710.629Z" fill="white"/>
<path d="M768.965 36L766.833 30.5508H759.965L757.856 36H755.84L762.614 18.7969H764.29L771.028 36H768.965ZM766.211 28.7578L764.219 23.4492C763.961 22.7773 763.696 21.9531 763.422 20.9766C763.251 21.7266 763.004 22.5508 762.684 23.4492L760.668 28.7578H766.211ZM784.924 25.4648L784.151 29.4492H787.467V30.9609H783.869L782.885 36H781.279L782.264 30.9609H778.713L777.752 36H776.158L777.096 30.9609H774.026V29.4492H777.389L778.186 25.4648H774.94V23.9766H778.443L779.404 18.8672H781.033L780.072 23.9766H783.647L784.631 18.8672H786.201L785.217 23.9766H788.311V25.4648H784.924ZM778.994 29.4492H782.545L783.318 25.4648H779.768L778.994 29.4492Z" fill="white"/>
<path d="M832.044 18.0742H836.883C839.157 18.0742 840.801 18.4141 841.817 19.0938C842.833 19.7734 843.341 20.8477 843.341 22.3164C843.341 23.332 843.055 24.1719 842.485 24.8359C841.923 25.4922 841.098 25.918 840.012 26.1133V26.2305C842.614 26.6758 843.915 28.043 843.915 30.332C843.915 31.8633 843.395 33.0586 842.356 33.918C841.325 34.7773 839.88 35.207 838.02 35.207H832.044V18.0742ZM834.036 25.4102H837.317C838.723 25.4102 839.735 25.1914 840.352 24.7539C840.969 24.3086 841.278 23.5625 841.278 22.5156C841.278 21.5547 840.934 20.8633 840.247 20.4414C839.559 20.0117 838.466 19.7969 836.966 19.7969H834.036V25.4102ZM834.036 27.0977V33.5078H837.61C838.993 33.5078 840.032 33.2422 840.727 32.7109C841.43 32.1719 841.782 31.332 841.782 30.1914C841.782 29.1289 841.423 28.3477 840.704 27.8477C839.993 27.3477 838.907 27.0977 837.446 27.0977H834.036Z" fill="white"/>
<rect x="417" y="87" width="62" height="39" fill="#EA80FC"/>
<rect x="482" y="87" width="62" height="39" fill="#FF80AB"/>
<rect x="612" y="87" width="61.8307" height="38.9218" fill="#FF8A80"/>
<rect x="677" y="87" width="61.8307" height="38.9218" fill="#FF9E80"/>
</svg>
