<svg id="Layer_1" data-name="Layer 1" xmlns="http://www.w3.org/2000/svg" viewBox="0 0 476 325"><defs><style>.cls-1{fill:#171717;}</style></defs><title>sidebar</title><path class="cls-1" d="M476,0V325H381.75a67.07,67.07,0,0,1-3.55-27c.92-11.22,5.1-24.45,5.59-26,3-9.45,7.33-19.39,3.2-24.27a20.11,20.11,0,0,1-3.54-5,18.49,18.49,0,0,1-1.72-6.71c-.54-7.17,1.93-15.81,3.11-21,2-8.88,3.11-13.74,2.1-20-1.65-10.12-7.11-13.32-5.21-21a6.07,6.07,0,0,1,.28-.92,10.42,10.42,0,0,1,.95-1.85,67.3,67.3,0,0,0,3-6.23c1.91-4.15-2.13-13.87-4-23-1.4-6.82-3.6-17.57.28-25.93a106.43,106.43,0,0,0,4.07-10.28A40.48,40.48,0,0,0,388,99c1.64-10.14-1.19-11.06-1.1-29.63.05-10.75,1-9.21,1.1-20.37.18-17.59-2.16-21.51,0-31a49,49,0,0,1,8.37-18Z"/></svg>