<?xml version="1.0" encoding="utf-8"?>
<!-- Generator: Adobe Illustrator 22.1.0, SVG Export Plug-In . SVG Version: 6.00 Build 0)  -->
<svg version="1.1" id="Layer_1" xmlns="http://www.w3.org/2000/svg" xmlns:xlink="http://www.w3.org/1999/xlink" x="0px" y="0px"
	 viewBox="0 0 300 300" style="enable-background:new 0 0 300 300;" xml:space="preserve">
<style type="text/css">
	.st0{display:none;}
	.st1{display:inline;}
	.st2{opacity:0.57;fill:#FF8040;stroke:#FF8040;stroke-miterlimit:10;enable-background:new    ;}
	.st3{fill:#FF8040;}
	.st4{opacity:0.68;fill:#FF8040;}
</style>
<g id="two-313" transform="matrix(1 0 0 1 0 0)" class="st0">
	<g id="two-314" transform="matrix(1 0 0 1 150 150)" class="st1">
		<path id="two-335" class="st2" d="M87.2,0c6.5,13,28.2,24.3,22.7,37.7c-5.9,14.5-34.6,1.2-46,12c-8.1,7.7-0.5,27-10.4,32.2
			C42.6,87.6,30.1,69.3,18,71C8.1,72.5,2.7,87.9-7.3,87.8c-9.6-0.1-15.1-12.8-23.9-16.7c-8.7-3.9-19-4.2-28.3-6.5
			c-13.2-3.3-34.3,1.6-40-10.8c-6.2-13.5,18.1-25.7,19.6-40.5c1-9.4-11.1-19.3-7-27.8c5.1-10.6,27.6-4.2,32.4-15
			c6.3-13.9-24.6-33.8-13.5-44.3C-57.1-84-39.6-53.4-25.5-58.2c10.8-3.7,8.2-23.9,18.3-29.2c8.5-4.5,19.7-0.9,29,1.3
			c9.4,2.2,18.9,6.1,26.7,11.8c7.7,5.7,14.2,13.5,18.9,21.7c4.6,7.9,5.9,17.6,9.1,26.2C79.8-17.5,83-8.4,87.2,0z"/>
		<path id="two-336" class="st3" d="M62.3,0C67,9.3,82.4,17.3,78.5,27c-4.2,10.4-24.7,0.9-32.9,8.6c-5.8,5.5-0.4,19.3-7.4,23
			c-7.8,4-16.7-9.1-25.4-7.8c-7.1,1-10.9,12.1-18,12c-6.9-0.1-10.8-9.1-17.1-11.9c-6.2-2.8-13.6-3-20.2-4.7
			C-52,43.8-67,47.4-71,38.5c-4.4-9.6,12.9-18.4,14-28.9c0.7-6.7-7.9-13.8-5-19.9c3.6-7.6,19.7-3,23.2-10.7
			c4.5-10-17.6-24.1-9.6-31.6c7.7-7.3,20.2,14.6,30.3,11.1c7.7-2.6,5.9-17.1,13.1-20.8c6.1-3.2,14.1-0.6,20.7,0.9
			c6.7,1.6,13.5,4.4,19.1,8.5c5.5,4,10.1,9.7,13.5,15.5c3.3,5.7,4.2,12.6,6.5,18.7C57-12.5,59.3-6,62.3,0z"/>
	</g>
	<g id="two-315" transform="matrix(1 0 0 1 150 150)" class="st1">
		<path id="two-316" d="M50.8,0c0,0.6-0.4,1-1,1s-1-0.4-1-1s0.4-1,1-1C50.4-1,50.8-0.6,50.8,0z"/>
		<path id="two-317" d="M63.8,21.6c0,0.6-0.4,1-1,1s-1-0.4-1-1s0.4-1,1-1C63.4,20.6,63.8,21,63.8,21.6z"/>
		<path id="two-318" d="M37.5,28.4c0,0.6-0.4,1-1,1s-1-0.4-1-1s0.4-1,1-1S37.5,27.9,37.5,28.4z"/>
		<path id="two-319" d="M31.6,46.8c0,0.6-0.4,1-1,1s-1-0.4-1-1s0.4-1,1-1C31.1,45.8,31.6,46.3,31.6,46.8z"/>
		<path id="two-320" d="M11.3,40.6c0,0.6-0.4,1-1,1s-1-0.4-1-1s0.4-1,1-1C10.8,39.6,11.3,40,11.3,40.6z"/>
		<path id="two-321" d="M-3.2,50.2c0,0.6-0.4,1-1,1s-1-0.4-1-1s0.4-1,1-1S-3.2,49.6-3.2,50.2z"/>
		<path id="two-322" d="M-16.8,40.7c0,0.6-0.4,1-1,1s-1-0.4-1-1s0.4-1,1-1C-17.3,39.7-16.8,40.1-16.8,40.7z"/>
		<path id="two-323" d="M-33,36.9c0,0.6-0.4,1-1,1s-1-0.4-1-1s0.4-1,1-1S-33,36.4-33,36.9z"/>
		<path id="two-324" d="M-55.8,30.7c0,0.6-0.4,1-1,1s-1-0.4-1-1s0.4-1,1-1C-56.3,29.7-55.8,30.2-55.8,30.7z"/>
		<path id="two-325" d="M-44.6,7.6c0,0.6-0.4,1-1,1s-1-0.4-1-1s0.4-1,1-1C-45.1,6.6-44.6,7.1-44.6,7.6z"/>
		<path id="two-326" d="M-48.6-8.3c0,0.6-0.4,1-1,1s-1-0.4-1-1s0.4-1,1-1C-49.1-9.3-48.6-8.8-48.6-8.3z"/>
		<path id="two-327" d="M-30.1-16.8c0,0.6-0.4,1-1,1s-1-0.4-1-1s0.4-1,1-1C-30.5-17.8-30.1-17.4-30.1-16.8z"/>
		<path id="two-328" d="M-37.8-42.1c0,0.6-0.4,1-1,1s-1-0.4-1-1s0.4-1,1-1S-37.8-42.7-37.8-42.1z"/>
		<path id="two-329" d="M-13.6-33.3c0,0.6-0.4,1-1,1s-1-0.4-1-1s0.4-1,1-1S-13.6-33.8-13.6-33.3z"/>
		<path id="two-330" d="M-3.1-49.9c0,0.6-0.4,1-1,1s-1-0.4-1-1s0.4-1,1-1C-3.6-50.9-3.1-50.5-3.1-49.9z"/>
		<path id="two-331" d="M13.5-49.2c0,0.6-0.4,1-1,1s-1-0.4-1-1s0.4-1,1-1C13-50.2,13.5-49.7,13.5-49.2z"/>
		<path id="two-332" d="M28.7-42.4c0,0.6-0.4,1-1,1s-1-0.4-1-1s0.4-1,1-1C28.3-43.4,28.7-43,28.7-42.4z"/>
		<path id="two-333" d="M39.5-30c0,0.6-0.4,1-1,1s-1-0.4-1-1s0.4-1,1-1S39.5-30.5,39.5-30z"/>
		<path id="two-334" d="M44.7-15c0,0.6-0.4,1-1,1s-1-0.4-1-1s0.4-1,1-1S44.7-15.6,44.7-15z"/>
	</g>
</g>
<g id="two-952" transform="matrix(1 0 0 1 0 0)">
	<g id="two-953" transform="matrix(1 0 0 1 150 150)">
		<path id="two-989" class="st4" d="M148.1-2.8c5.1,7.9-1.7,19-3.6,28.3c-1.8,9.2-0.3,21.5-7.6,27.4c-12.2,9.9-39.3-10.1-47.6,3.2
			c-8.8,14.1,23.4,30.4,19.1,46.4c-2.5,9.2-15,12.2-22.9,17.6c-7.8,5.4-15.8,11.1-24.5,14.9c-8.7,3.7-18.4,5.5-27.6,7.6
			c-9.2,2-19.1,7.9-28,4.9c-11.5-3.8-13-25.2-25-26.8c-12.1-1.6-19.2,18.6-31.3,19.5c-9.4,0.7-17.7-7.2-26.2-11.5
			c-8.5-4.3-18.8-7.2-25.2-14.3c-6.6-7.4-6.5-19.3-11.6-27.8c-4.7-7.7-12.1-13.9-17.4-21.2c-5.6-7.6-16.5-14.6-15.5-23.9
			c1.6-15,33.5-17.1,32.4-32.1c-1-13.2-26-12.2-32.4-23.8c-4.5-8.3-3.5-19.4-1.7-28.7c1.7-9.2,6.8-18,11.9-25.9
			c5-7.8,12.1-14.5,18.3-21.4c6-6.7,10-17.8,18.8-20c13.6-3.4,28.4,21.4,40.1,13.8c13.7-9-9.3-39.6,3.8-49.4
			c8.2-6.1,21.1,1.9,30.2,6.4c10,4.9,14.7,19.6,25.6,21.9c8,1.7,16.2-4.1,23.8-7.3c11.5-4.8,20.8-17.7,33.2-17.7
			c9.5,0,21.2,5.2,25.4,13.7c7.2,14.6-19.6,37.2-8,48.7c11.6,11.6,34.3-15.7,49-8.4c8.5,4.2,13.7,16.1,13.2,25.6
			c-0.6,13.4-23.3,20.8-22.1,34.3c0.9,9.9,12.1,16.8,20.6,22.1C139.1-4.4,145.7-6.5,148.1-2.8z"/>
		<path id="two-990" class="st3" d="M105-2.8c3.6,5.6-1.2,13.6-2.5,20.2c-1.3,6.6-0.2,15.3-5.4,19.6c-8.7,7.1-28.1-7.2-34,2.3
			c-6.3,10,16.7,21.7,13.6,33.2C74.9,79,65.9,81.2,60.3,85c-5.6,3.8-11.3,8-17.5,10.6c-6.2,2.7-13.1,3.9-19.7,5.4
			c-6.5,1.5-13.7,5.6-20,3.5c-8.2-2.7-9.3-18-17.8-19.1c-8.6-1.1-13.7,13.3-22.4,13.9c-6.7,0.5-12.7-5.2-18.7-8.2
			c-6.1-3.1-13.5-5.1-18-10.2c-4.7-5.3-4.6-13.8-8.3-19.9c-3.3-5.5-8.6-9.9-12.5-15.1c-4-5.4-11.8-10.4-11.1-17.1
			c1.2-10.7,23.9-12.2,23.2-22.9c-0.7-9.4-18.6-8.7-23.1-17c-3.2-6-2.5-13.8-1.2-20.5c1.2-6.6,4.9-12.8,8.5-18.5
			c3.6-5.6,8.6-10.4,13.1-15.3c4.3-4.8,7.2-12.7,13.4-14.3c9.7-2.4,20.3,15.3,28.7,9.8c9.8-6.4-6.6-28.3,2.7-35.3
			c5.8-4.4,15.1,1.3,21.6,4.5c7.1,3.5,10.5,14,18.3,15.6c5.7,1.2,11.6-3,17-5.2c8.2-3.4,14.9-12.6,23.7-12.6
			c6.8,0,15.1,3.7,18.1,9.8c5.1,10.4-14,26.6-5.7,34.8c8.3,8.3,24.5-11.2,35-6c6.1,3,9.8,11.5,9.5,18.3C96.5-36.3,80.3-31,81.1-21.4
			c0.6,7.1,8.7,12,14.7,15.8C98.5-3.9,103.3-5.5,105-2.8z"/>
	</g>
	<g id="two-954" transform="matrix(1 0 0 1 150 150)">
		<path id="two-955" d="M85-2.8c0,0.8-0.7,1.5-1.5,1.5C82.6-1.3,82-2,82-2.8c0-0.8,0.7-1.5,1.5-1.5C84.3-4.3,85-3.6,85-2.8z"/>
		<path id="two-956" d="M82.9,13.3c0,0.8-0.7,1.5-1.5,1.5c-0.8,0-1.5-0.7-1.5-1.5c0-0.8,0.7-1.5,1.5-1.5
			C82.3,11.8,82.9,12.5,82.9,13.3z"/>
		<path id="two-957" d="M78.6,29c0,0.8-0.7,1.5-1.5,1.5c-0.8,0-1.5-0.7-1.5-1.5c0-0.8,0.7-1.5,1.5-1.5C77.9,27.5,78.6,28.2,78.6,29z
			"/>
		<path id="two-958" d="M51.4,30.8c0,0.8-0.7,1.5-1.5,1.5c-0.8,0-1.5-0.7-1.5-1.5c0-0.8,0.7-1.5,1.5-1.5
			C50.7,29.3,51.4,30,51.4,30.8z"/>
		<path id="two-959" d="M62.3,57.4c0,0.8-0.7,1.5-1.5,1.5c-0.8,0-1.5-0.7-1.5-1.5c0-0.8,0.7-1.5,1.5-1.5
			C61.6,55.9,62.3,56.6,62.3,57.4z"/>
		<path id="two-960" d="M49.2,67.4c0,0.8-0.7,1.5-1.5,1.5c-0.8,0-1.5-0.7-1.5-1.5c0-0.8,0.7-1.5,1.5-1.5
			C48.5,65.9,49.2,66.6,49.2,67.4z"/>
		<path id="two-961" d="M35.2,75.9c0,0.8-0.7,1.5-1.5,1.5c-0.8,0-1.5-0.7-1.5-1.5c0-0.8,0.7-1.5,1.5-1.5
			C34.5,74.4,35.2,75.1,35.2,75.9z"/>
		<path id="two-962" d="M19.4,80.3c0,0.8-0.7,1.5-1.5,1.5c-0.8,0-1.5-0.7-1.5-1.5c0-0.8,0.7-1.5,1.5-1.5
			C18.7,78.8,19.4,79.5,19.4,80.3z"/>
		<path id="two-963" d="M3.4,83.1c0,0.8-0.7,1.5-1.5,1.5c-0.8,0-1.5-0.7-1.5-1.5c0-0.8,0.7-1.5,1.5-1.5C2.7,81.6,3.4,82.2,3.4,83.1z
			"/>
		<path id="two-964" d="M-10.9,67.8c0,0.8-0.7,1.5-1.5,1.5c-0.8,0-1.5-0.7-1.5-1.5c0-0.8,0.7-1.5,1.5-1.5
			C-11.5,66.3-10.9,66.9-10.9,67.8z"/>
		<path id="two-965" d="M-28.8,78.9c0,0.8-0.7,1.5-1.5,1.5c-0.8,0-1.5-0.7-1.5-1.5c0-0.8,0.7-1.5,1.5-1.5
			C-29.4,77.4-28.8,78.1-28.8,78.9z"/>
		<path id="two-966" d="M-43.7,72.3c0,0.8-0.7,1.5-1.5,1.5c-0.8,0-1.5-0.7-1.5-1.5c0-0.8,0.7-1.5,1.5-1.5
			C-44.4,70.8-43.7,71.5-43.7,72.3z"/>
		<path id="two-967" d="M-58.1,64.2c0,0.8-0.7,1.5-1.5,1.5c-0.8,0-1.5-0.7-1.5-1.5c0-0.8,0.7-1.5,1.5-1.5
			C-58.8,62.7-58.1,63.3-58.1,64.2z"/>
		<path id="two-968" d="M-64.8,48.3c0,0.8-0.7,1.5-1.5,1.5c-0.8,0-1.5-0.7-1.5-1.5c0-0.8,0.7-1.5,1.5-1.5
			C-65.4,46.8-64.8,47.4-64.8,48.3z"/>
		<path id="two-969" d="M-74.7,36.2c0,0.8-0.7,1.5-1.5,1.5c-0.8,0-1.5-0.7-1.5-1.5c0-0.8,0.7-1.5,1.5-1.5
			C-75.4,34.7-74.7,35.3-74.7,36.2z"/>
		<path id="two-970" d="M-83.6,22.5c0,0.8-0.7,1.5-1.5,1.5c-0.8,0-1.5-0.7-1.5-1.5c0-0.8,0.7-1.5,1.5-1.5
			C-84.3,21-83.6,21.7-83.6,22.5z"/>
		<path id="two-971" d="M-65.1,4.2c0,0.8-0.7,1.5-1.5,1.5c-0.8,0-1.5-0.7-1.5-1.5c0-0.8,0.7-1.5,1.5-1.5
			C-65.7,2.7-65.1,3.3-65.1,4.2z"/>
		<path id="two-972" d="M-83.6-9.5c0,0.8-0.7,1.5-1.5,1.5c-0.8,0-1.5-0.7-1.5-1.5c0-0.8,0.7-1.5,1.5-1.5
			C-84.2-11-83.6-10.3-83.6-9.5z"/>
		<path id="two-973" d="M-84.5-25.9c0,0.8-0.7,1.5-1.5,1.5c-0.8,0-1.5-0.7-1.5-1.5c0-0.8,0.7-1.5,1.5-1.5
			C-85.2-27.4-84.5-26.7-84.5-25.9z"/>
		<path id="two-974" d="M-77.8-40.7c0,0.8-0.7,1.5-1.5,1.5c-0.8,0-1.5-0.7-1.5-1.5c0-0.8,0.7-1.5,1.5-1.5
			C-78.4-42.2-77.8-41.5-77.8-40.7z"/>
		<path id="two-975" d="M-67.3-52.9c0,0.8-0.7,1.5-1.5,1.5c-0.8,0-1.5-0.7-1.5-1.5c0-0.8,0.7-1.5,1.5-1.5
			C-68-54.4-67.3-53.8-67.3-52.9z"/>
		<path id="two-976" d="M-56.6-64.3c0,0.8-0.7,1.5-1.5,1.5c-0.8,0-1.5-0.7-1.5-1.5c0-0.8,0.7-1.5,1.5-1.5
			C-57.2-65.8-56.6-65.2-56.6-64.3z"/>
		<path id="two-977" d="M-33.6-56.5c0,0.8-0.7,1.5-1.5,1.5c-0.8,0-1.5-0.7-1.5-1.5c0-0.8,0.7-1.5,1.5-1.5
			C-34.3-58-33.6-57.3-33.6-56.5z"/>
		<path id="two-978" d="M-31.4-84.7c0,0.8-0.7,1.5-1.5,1.5c-0.8,0-1.5-0.7-1.5-1.5c0-0.8,0.7-1.5,1.5-1.5
			C-32.1-86.2-31.4-85.5-31.4-84.7z"/>
		<path id="two-979" d="M-14.2-81.1c0,0.8-0.7,1.5-1.5,1.5c-0.8,0-1.5-0.7-1.5-1.5c0-0.8,0.7-1.5,1.5-1.5
			C-14.9-82.6-14.2-81.9-14.2-81.1z"/>
		<path id="two-980" d="M0.4-68.6c0,0.8-0.7,1.5-1.5,1.5c-0.8,0-1.5-0.7-1.5-1.5c0-0.8,0.7-1.5,1.5-1.5C-0.2-70.1,0.4-69.4,0.4-68.6
			z"/>
		<path id="two-981" d="M14-72.7c0,0.8-0.7,1.5-1.5,1.5c-0.8,0-1.5-0.7-1.5-1.5c0-0.8,0.7-1.5,1.5-1.5C13.4-74.2,14-73.5,14-72.7z"
			/>
		<path id="two-982" d="M33-82.8c0,0.8-0.7,1.5-1.5,1.5c-0.8,0-1.5-0.7-1.5-1.5c0-0.8,0.7-1.5,1.5-1.5C32.4-84.3,33-83.6,33-82.8z"
			/>
		<path id="two-983" d="M47.5-75c0,0.8-0.7,1.5-1.5,1.5c-0.8,0-1.5-0.7-1.5-1.5c0-0.8,0.7-1.5,1.5-1.5C46.8-76.5,47.5-75.8,47.5-75z
			"/>
		<path id="two-984" d="M42.9-47.1c0,0.8-0.7,1.5-1.5,1.5c-0.8,0-1.5-0.7-1.5-1.5c0-0.8,0.7-1.5,1.5-1.5
			C42.3-48.6,42.9-48,42.9-47.1z"/>
		<path id="two-985" d="M70.9-51.9c0,0.8-0.7,1.5-1.5,1.5c-0.8,0-1.5-0.7-1.5-1.5c0-0.8,0.7-1.5,1.5-1.5
			C70.3-53.4,70.9-52.7,70.9-51.9z"/>
		<path id="two-986" d="M78.5-37.3c0,0.8-0.7,1.5-1.5,1.5c-0.8,0-1.5-0.7-1.5-1.5c0-0.8,0.7-1.5,1.5-1.5
			C77.8-38.8,78.5-38.1,78.5-37.3z"/>
		<path id="two-987" d="M65.9-17.7c0,0.8-0.7,1.5-1.5,1.5c-0.8,0-1.5-0.7-1.5-1.5c0-0.8,0.7-1.5,1.5-1.5
			C65.2-19.2,65.9-18.5,65.9-17.7z"/>
		<path id="two-988" d="M77.6-5.1c0,0.8-0.7,1.5-1.5,1.5c-0.8,0-1.5-0.7-1.5-1.5c0-0.8,0.7-1.5,1.5-1.5C77-6.6,77.6-5.9,77.6-5.1z"
			/>
	</g>
</g>
</svg>
