<?xml version="1.0" encoding="utf-8"?>
<!-- Generator: Adobe Illustrator 22.1.0, SVG Export Plug-In . SVG Version: 6.00 Build 0)  -->
<svg version="1.1" id="Layer_1" xmlns="http://www.w3.org/2000/svg" xmlns:xlink="http://www.w3.org/1999/xlink" x="0px" y="0px"
	 viewBox="0 0 300 300" style="enable-background:new 0 0 300 300;" xml:space="preserve">
<style type="text/css">
	.st0{opacity:0.57;fill:#FF8040;stroke:#FF8040;stroke-miterlimit:10;}
	.st1{fill:#FF8040;}
</style>
<g id="two-313" transform="matrix(1 0 0 1 0 0)">
	<g id="two-314" transform="matrix(1 0 0 1 150 150)">
		<path id="two-335" class="st0" d="M87.2,0c6.5,13,28.2,24.3,22.7,37.7c-5.9,14.5-34.6,1.2-46,12c-8.1,7.7-0.5,27-10.4,32.2
			C42.6,87.6,30.1,69.3,18,71C8.1,72.5,2.7,87.9-7.3,87.8c-9.6-0.1-15.1-12.8-23.9-16.7c-8.7-3.9-19-4.2-28.3-6.5
			c-13.2-3.3-34.3,1.6-40-10.8c-6.2-13.5,18.1-25.7,19.6-40.5c1-9.4-11.1-19.3-7-27.8c5.1-10.6,27.6-4.2,32.4-15
			c6.3-13.9-24.6-33.8-13.5-44.3C-57.1-84-39.6-53.4-25.5-58.2c10.8-3.7,8.2-23.9,18.3-29.2c8.5-4.5,19.7-0.9,29,1.3
			c9.4,2.2,18.9,6.1,26.7,11.8c7.7,5.7,14.2,13.5,18.9,21.7c4.6,7.9,5.9,17.6,9.1,26.2C79.8-17.5,83-8.4,87.2,0z"/>
		<path id="two-336" class="st1" d="M62.3,0C67,9.3,82.4,17.3,78.5,27c-4.2,10.4-24.7,0.9-32.9,8.6c-5.8,5.5-0.4,19.3-7.4,23
			c-7.8,4-16.7-9.1-25.4-7.8c-7.1,1-10.9,12.1-18,12c-6.9-0.1-10.8-9.1-17.1-11.9c-6.2-2.8-13.6-3-20.2-4.7
			c-9.5-2.4-24.5,1.2-28.5-7.7c-4.4-9.6,12.9-18.4,14-28.9c0.7-6.7-7.9-13.8-5-19.9c3.6-7.6,19.7-3,23.2-10.7
			c4.5-10-17.6-24.1-9.6-31.6c7.7-7.3,20.2,14.6,30.3,11.1c7.7-2.6,5.9-17.1,13.1-20.8c6.1-3.2,14.1-0.6,20.7,0.9
			c6.7,1.6,13.5,4.4,19.1,8.5c5.5,4,10.1,9.7,13.5,15.5c3.3,5.7,4.2,12.6,6.5,18.7C57-12.5,59.3-6,62.3,0z"/>
	</g>
	<g id="two-315" transform="matrix(1 0 0 1 150 150)">
		<path id="two-316" d="M50.8,0c0,0.6-0.4,1-1,1c-0.6,0-1-0.4-1-1c0-0.6,0.4-1,1-1C50.4-1,50.8-0.6,50.8,0z"/>
		<path id="two-317" d="M63.8,21.6c0,0.6-0.4,1-1,1c-0.6,0-1-0.4-1-1c0-0.6,0.4-1,1-1C63.4,20.6,63.8,21,63.8,21.6z"/>
		<path id="two-318" d="M37.5,28.4c0,0.6-0.4,1-1,1c-0.6,0-1-0.4-1-1c0-0.6,0.4-1,1-1C37.1,27.4,37.5,27.9,37.5,28.4z"/>
		<path id="two-319" d="M31.6,46.8c0,0.6-0.4,1-1,1c-0.6,0-1-0.4-1-1c0-0.6,0.4-1,1-1C31.1,45.8,31.6,46.3,31.6,46.8z"/>
		<path id="two-320" d="M11.3,40.6c0,0.6-0.4,1-1,1c-0.6,0-1-0.4-1-1c0-0.6,0.4-1,1-1C10.8,39.6,11.3,40,11.3,40.6z"/>
		<path id="two-321" d="M-3.2,50.2c0,0.6-0.4,1-1,1c-0.6,0-1-0.4-1-1c0-0.6,0.4-1,1-1C-3.6,49.2-3.2,49.6-3.2,50.2z"/>
		<path id="two-322" d="M-16.8,40.7c0,0.6-0.4,1-1,1c-0.6,0-1-0.4-1-1c0-0.6,0.4-1,1-1C-17.3,39.7-16.8,40.1-16.8,40.7z"/>
		<path id="two-323" d="M-33,36.9c0,0.6-0.4,1-1,1c-0.6,0-1-0.4-1-1c0-0.6,0.4-1,1-1C-33.4,35.9-33,36.4-33,36.9z"/>
		<path id="two-324" d="M-55.8,30.7c0,0.6-0.4,1-1,1c-0.6,0-1-0.4-1-1c0-0.6,0.4-1,1-1C-56.3,29.7-55.8,30.2-55.8,30.7z"/>
		<path id="two-325" d="M-44.6,7.6c0,0.6-0.4,1-1,1c-0.6,0-1-0.4-1-1c0-0.6,0.4-1,1-1C-45.1,6.6-44.6,7.1-44.6,7.6z"/>
		<path id="two-326" d="M-48.6-8.3c0,0.6-0.4,1-1,1c-0.6,0-1-0.4-1-1c0-0.6,0.4-1,1-1C-49.1-9.3-48.6-8.8-48.6-8.3z"/>
		<path id="two-327" d="M-30.1-16.8c0,0.6-0.4,1-1,1c-0.6,0-1-0.4-1-1c0-0.6,0.4-1,1-1C-30.5-17.8-30.1-17.4-30.1-16.8z"/>
		<path id="two-328" d="M-37.8-42.1c0,0.6-0.4,1-1,1c-0.6,0-1-0.4-1-1c0-0.6,0.4-1,1-1C-38.2-43.1-37.8-42.7-37.8-42.1z"/>
		<path id="two-329" d="M-13.6-33.3c0,0.6-0.4,1-1,1c-0.6,0-1-0.4-1-1c0-0.6,0.4-1,1-1C-14-34.3-13.6-33.8-13.6-33.3z"/>
		<path id="two-330" d="M-3.1-49.9c0,0.6-0.4,1-1,1c-0.6,0-1-0.4-1-1c0-0.6,0.4-1,1-1C-3.6-50.9-3.1-50.5-3.1-49.9z"/>
		<path id="two-331" d="M13.5-49.2c0,0.6-0.4,1-1,1c-0.6,0-1-0.4-1-1c0-0.6,0.4-1,1-1C13-50.2,13.5-49.7,13.5-49.2z"/>
		<path id="two-332" d="M28.7-42.4c0,0.6-0.4,1-1,1c-0.6,0-1-0.4-1-1c0-0.6,0.4-1,1-1C28.3-43.4,28.7-43,28.7-42.4z"/>
		<path id="two-333" d="M39.5-30c0,0.6-0.4,1-1,1c-0.6,0-1-0.4-1-1c0-0.6,0.4-1,1-1C39.1-31,39.5-30.5,39.5-30z"/>
		<path id="two-334" d="M44.7-15c0,0.6-0.4,1-1,1c-0.6,0-1-0.4-1-1c0-0.6,0.4-1,1-1C44.3-16,44.7-15.6,44.7-15z"/>
	</g>
</g>
</svg>
