<svg id="Layer_1" data-name="Layer 1" xmlns="http://www.w3.org/2000/svg" viewBox="0 0 150 150"><defs><style>.cls-1{fill:#1e1e1e;}.cls-2{fill:none;stroke:#fff;stroke-miterlimit:10;stroke-width:6px;}.cls-3{fill:#fff;}</style></defs><title>unmute</title><circle class="cls-1" cx="75" cy="75" r="75"/><g id="cBAgWT"><path class="cls-2" d="M75,75.14V95a3.18,3.18,0,0,1-3.09,3.27,3.29,3.29,0,0,1-1.68-.43,5.93,5.93,0,0,1-.75-.57q-7.7-6.36-15.37-12.74a1.27,1.27,0,0,0-.89-.32H45.47A3.2,3.2,0,0,1,42,81.31a2.91,2.91,0,0,1,0-.59V69.44A3.18,3.18,0,0,1,44.9,66a4.68,4.68,0,0,1,.53,0h7.79a1.29,1.29,0,0,0,.9-.32l15.54-12.9a3.11,3.11,0,0,1,3.56-.49,3,3,0,0,1,1.78,3Z"/><path class="cls-3" d="M107.49,74.41c-.13,9.86-3,18-8.87,25.13a3.18,3.18,0,0,1-4.45.68L94,100.1c-1.78-1.46-2.06-3.36-.72-5A31.26,31.26,0,0,0,93,54.79a4.07,4.07,0,0,1-1-1.9A3.63,3.63,0,0,1,94.1,49a3.1,3.1,0,0,1,3.84.85A37.58,37.58,0,0,1,107.1,70C107.33,71.67,107.41,73.39,107.49,74.41Z"/><path class="cls-3" d="M93.2,75.09a23.71,23.71,0,0,1-4.66,14.17,3.12,3.12,0,0,1-4.08,1A3.4,3.4,0,0,1,83,85.12a16.9,16.9,0,0,0-.45-20.61c-1.28-1.63-1-3.53.81-5a3.21,3.21,0,0,1,4.5.5l.1.14A23.56,23.56,0,0,1,93.2,75.09Z"/></g></svg>