<svg id="Layer_1" data-name="Layer 1" xmlns="http://www.w3.org/2000/svg" viewBox="0 0 150 150"><defs><style>.cls-1{fill:none;stroke:#ff9c7e;stroke-miterlimit:10;stroke-width:8px;}.cls-2{fill:#ff9c7e;}</style></defs><title>info</title><circle class="cls-1" cx="74" cy="74" r="70"/><path class="cls-2" d="M85.3,52.27c0-6.66-4-12-12-12C67.87,40.27,63,43,59.1,47.36L53.24,42c5.21-5.85,12.28-10.24,21.26-10.24,12.54,0,20.79,7.61,20.79,19.78,0,16.29-20,22.85-18,40.17h-9C65.65,72.47,85.3,65.37,85.3,52.27ZM65.69,110.1c0-4.68,3.33-7.88,7.39-7.88s7.38,3.2,7.38,7.88a7.39,7.39,0,1,1-14.77,0Z"/></svg>