<svg id="Layer_1" data-name="Layer 1" xmlns="http://www.w3.org/2000/svg" viewBox="0 0 476 325"><defs><style>.cls-1{fill:#171717;}</style></defs><title>blobifyMenu</title><path class="cls-1" d="M476,325H0V257a38.6,38.6,0,0,1,14-13c13.17-6.92,19.44.81,36-5,11.86-4.16,16.21-10.78,27.62-10,.69.05,3.57.76,9.38,2,8.28,1.72,21.57,4.4,26.17,1.36a32.55,32.55,0,0,1,3.46-2,28.42,28.42,0,0,1,3.9-1.65,36.42,36.42,0,0,1,9.82-1.79c10.5-.56,23.16,2,30.76,3.24,13,2.09,20.12,3.24,29.29,2.18,14.82-1.71,19.51-7.4,30.76-5.42.57.1,1,.19,1.34.29a17.77,17.77,0,0,1,2.72,1s1.18.56,9.12,3.16c6.07,2,20.31-2.22,33.68-4.17,10-1.45,25.73-3.74,38,.3,1.39.46,7.22,2.35,15.05,4.24a83.55,83.55,0,0,0,9.95,1.71c4.09.47,6.85.47,8.38.53,8.42.34,13.95,3.57,18.62,5.06,18.33,5.83,30.67-13,46.23-5.59,5.54,2.64,4,5,9.77,7.59,12,5.31,21.2-3.72,35-3,6.5.34,15.89,2.94,27,14Z"/></svg>