<svg id="Layer_1" data-name="Layer 1" xmlns="http://www.w3.org/2000/svg" viewBox="0 0 150 150"><defs><style>.cls-1{fill:none;stroke:#fff;stroke-miterlimit:10;stroke-width:2px;}</style></defs><title>settings</title><circle class="cls-1" cx="74.79" cy="74.79" r="73.21"/><g id="ilZQ7N.tif"><path class="cls-1" d="M18,75c0-1.42,0-2.85,0-4.27a4.33,4.33,0,0,1,4.35-4.43c1.61,0,3.23,0,4.84,0A6.43,6.43,0,0,0,33.39,62c1-2.54,2.06-5,3.12-7.57a6.33,6.33,0,0,0-1.28-6.8c-1.15-1.16-2.32-2.31-3.47-3.48a4.36,4.36,0,0,1,0-6.52q2.91-2.93,5.84-5.84a4.34,4.34,0,0,1,6.46-.05c1.17,1.15,2.32,2.32,3.49,3.47a6.31,6.31,0,0,0,7,1.25c2.53-1.09,5.08-2.13,7.64-3.15a6.38,6.38,0,0,0,4-5.84c0-1.57,0-3.14,0-4.7A4.38,4.38,0,0,1,71,18h8a4.4,4.4,0,0,1,4.71,4.66c0,1.62,0,3.23,0,4.85a6.38,6.38,0,0,0,4,5.76c2.64,1.06,5.25,2.2,7.9,3.24a6,6,0,0,0,6.68-1.22c1.26-1.16,2.43-2.41,3.65-3.61a4.33,4.33,0,0,1,6.3,0q3,3,6.06,6a4.37,4.37,0,0,1,0,6.37c-1.15,1.16-2.33,2.3-3.49,3.47a6.36,6.36,0,0,0-1.26,7.05c1.08,2.5,2.11,5,3.12,7.56a6.4,6.4,0,0,0,5.88,4.1c1.59,0,3.19,0,4.78,0A4.35,4.35,0,0,1,132,70.89v8.34a4.34,4.34,0,0,1-4.47,4.51c-1.64,0-3.28,0-4.92,0a6.42,6.42,0,0,0-5.93,4.14c-1,2.56-2.07,5.1-3.15,7.63a6.36,6.36,0,0,0,1.25,6.87c1.15,1.17,2.32,2.31,3.48,3.47a4.39,4.39,0,0,1,0,6.52c-2,2-3.93,3.93-5.91,5.89a4.35,4.35,0,0,1-6.46,0l-3.42-3.43a6.34,6.34,0,0,0-6.93-1.27c-2.55,1.09-5.12,2.15-7.69,3.18a6.33,6.33,0,0,0-4,5.83c0,1.59,0,3.18,0,4.77A4.4,4.4,0,0,1,79.08,132H70.81a4.33,4.33,0,0,1-4.54-4.38c0-1.66,0-3.32,0-5a6.38,6.38,0,0,0-4.11-5.93q-3.87-1.55-7.7-3.18a6.29,6.29,0,0,0-6.75,1.19c-1.23,1.2-2.42,2.42-3.64,3.62a4.34,4.34,0,0,1-6.31,0c-2-2-4-4-6-5.94a4.38,4.38,0,0,1,0-6.57c1.14-1.15,2.29-2.28,3.43-3.43a6.35,6.35,0,0,0,1.26-6.87q-1.65-3.83-3.19-7.69a6.41,6.41,0,0,0-5.89-4.08c-1.59,0-3.18,0-4.78,0A4.36,4.36,0,0,1,18,79.1ZM75,50.59A24.41,24.41,0,1,0,99.41,75,24.4,24.4,0,0,0,75,50.59Z"/></g></svg>