<svg id="Layer_1" data-name="Layer 1" xmlns="http://www.w3.org/2000/svg" viewBox="0 0 150 150"><defs><style>.cls-1{fill:none;stroke:#fff;stroke-miterlimit:10;stroke-width:5px;}</style></defs><title>unmute</title><circle class="cls-1" cx="74.79" cy="74.79" r="73.21"/><g id="cBAgWT"><path class="cls-1" d="M75.17,75.39q0,16.19,0,32.35a5.18,5.18,0,0,1-7.78,4.63,10.1,10.1,0,0,1-1.23-.92q-12.54-10.4-25.07-20.8a2.09,2.09,0,0,0-1.46-.52q-6.32,0-12.63,0c-3.47,0-5.6-2.15-5.6-5.64q0-9.19,0-18.4a5.19,5.19,0,0,1,5.53-5.55q6.36,0,12.71,0A2.11,2.11,0,0,0,41.1,60L66.46,39a5.08,5.08,0,0,1,5.81-.81A5,5,0,0,1,75.17,43V75.39Z"/><path class="cls-1" d="M128.19,74.21c-.22,16.09-5,29.41-14.47,41a5.2,5.2,0,0,1-7.52.92c-2.9-2.38-3.35-5.48-1.16-8.14a51,51,0,0,0-.44-65.78,6.93,6.93,0,0,1-1.75-3.11c-.52-2.7,1.15-5,3.48-6.28a5.09,5.09,0,0,1,6.27,1.39,61.34,61.34,0,0,1,15,32.77C127.92,69.74,128.05,72.54,128.19,74.21Z"/><path class="cls-1" d="M104.86,75.31a38.65,38.65,0,0,1-7.59,23.12,5.08,5.08,0,0,1-6.67,1.72c-2.65-1.49-4.07-3.89-3.24-6.77a5.71,5.71,0,0,1,.87-1.7,27.57,27.57,0,0,0-.75-33.63C85.41,55.4,85.92,52.3,88.82,50a5.2,5.2,0,0,1,7.49,1A38.39,38.39,0,0,1,104.86,75.31Z"/></g></svg>